<?xml version="1.0" standalone="no"?>
<!DOCTYPE svg PUBLIC "-//W3C//DTD SVG 20010904//EN"
 "http://www.w3.org/TR/2001/REC-SVG-20010904/DTD/svg10.dtd">
<svg version="1.0" xmlns="http://www.w3.org/2000/svg"
 width="400.000000pt" height="400.000000pt" viewBox="0 0 400.000000 400.000000"
 preserveAspectRatio="xMidYMid meet">
<metadata>
Created by potrace 1.16, written by Peter Selinger 2001-2019
</metadata>
<g transform="translate(0.000000,400.000000) scale(0.100000,-0.100000)"
fill="#000000" stroke="none">
<path d="M1137 3487 l-837 -491 0 -577 c0 -316 3 -758 7 -980 l6 -405 839
-478 c461 -263 844 -479 851 -480 7 0 389 219 850 489 l837 489 0 576 c0 317
-3 759 -7 981 l-6 405 -836 477 c-460 262 -843 478 -851 481 -8 2 -392 -217
-853 -487z m1303 -58 c0 -12 20 -58 44 -103 59 -110 80 -242 79 -512 -1 -105
2 -195 5 -201 4 -5 54 -41 112 -80 86 -58 116 -85 169 -152 67 -88 73 -102 92
-226 14 -95 27 -122 113 -242 36 -51 71 -104 76 -118 16 -42 12 -131 -6 -149
-17 -18 -66 -21 -94 -6 -15 8 -17 6 -13 -11 3 -11 21 -28 39 -37 19 -8 34 -20
34 -25 0 -6 -16 -30 -36 -53 -27 -34 -42 -44 -65 -44 -23 0 -46 -15 -104 -70
-74 -70 -84 -75 -164 -84 -67 -7 -120 -49 -156 -123 -16 -34 -34 -61 -39 -59
-17 4 -37 81 -33 124 4 36 2 42 -14 42 -25 0 -24 4 11 67 17 29 30 55 30 58 0
3 -15 5 -34 5 -30 0 -35 4 -41 30 -7 34 -12 34 -92 0 -33 -15 -52 -34 -87 -87
-71 -110 -97 -187 -116 -348 l-11 -91 40 -109 c22 -60 38 -111 36 -113 -16
-17 -64 29 -218 205 -14 16 -23 52 -32 128 -7 59 -16 109 -19 112 -10 10 -37
-68 -31 -88 11 -33 -11 -21 -50 28 -33 44 -36 52 -31 93 3 25 9 72 12 105 l7
60 -36 -40 c-23 -25 -36 -50 -37 -67 0 -16 -3 -28 -7 -28 -5 0 -24 27 -43 60
l-34 60 -41 -38 c-71 -69 -283 -241 -307 -251 -13 -6 -112 -20 -221 -32 l-198
-21 -97 54 -97 54 -48 143 c-26 79 -46 145 -44 148 3 2 27 -27 55 -64 83 -112
75 -108 198 -96 65 7 119 18 142 30 86 45 344 207 334 211 -11 3 -191 -48
-321 -93 -41 -14 -93 -25 -117 -25 -62 0 -175 37 -201 66 -12 13 -38 75 -59
136 l-36 113 6 219 c3 120 8 221 11 224 11 11 19 -13 67 -200 27 -106 54 -195
59 -199 6 -3 67 -9 135 -13 125 -7 126 -7 294 36 93 23 167 44 166 46 -2 2
-68 -4 -147 -12 -91 -9 -159 -12 -184 -6 -55 11 -167 58 -186 78 -19 19 -109
388 -109 444 0 19 6 81 14 139 8 57 17 137 21 177 4 39 10 72 14 72 7 0 80
-222 116 -352 9 -34 29 -73 47 -94 36 -41 140 -114 162 -114 25 0 180 60 200
78 10 9 82 95 159 190 180 222 251 277 451 347 92 33 161 76 276 174 98 83
116 104 182 214 54 90 57 114 31 211 -16 61 -13 116 7 116 6 0 10 -10 10 -21z"/>
</g>
</svg>
